<?xml version="1.0" encoding="utf-8"?>
<!-- Generator: Adobe Illustrator 21.1.0, SVG Export Plug-In . SVG Version: 6.00 Build 0)  -->
<svg version="1.1" id="Capa_1" xmlns="http://www.w3.org/2000/svg" xmlns:xlink="http://www.w3.org/1999/xlink" x="0px" y="0px"
	 viewBox="0 0 85.8 20" style="enable-background:new 0 0 85.8 20;" xml:space="preserve">
<style type="text/css">
	.st0{display:none;}
	.st1{display:inline;fill:#BA0C0F;}
	.st2{fill:#0E2888;}
</style>
<g id="Capa_2" class="st0">
	<rect x="-1277.8" y="2005.3" class="st1" width="97.2" height="31.3"/>
</g>
<path class="st2" d="M19.8,7.7h-2.4c-0.6,0-1.3,0.2-1.3,2c0,1.8,0.7,2,1.3,2h2.4c0.6,0,1.3-0.2,1.3-2C21.1,8,20.4,7.7,19.8,7.7
	 M25.6,2.4h-14c-2.2,0-4,1.8-4,4v6.8c0,2.2,1.8,4,4,4h14c2.2,0,4-1.8,4-4V6.4C29.5,4.2,27.8,2.4,25.6,2.4 M14.1,12.8h-0.9V7.7h-0.7
	V6.8h1.6V12.8z M21.6,11.8c-0.4,0.6-0.9,0.9-1.7,0.9h-2.6c-0.8,0-1.4-0.3-1.7-0.9c-0.3-0.5-0.4-1.1-0.4-2c0-0.9,0.1-1.5,0.4-2
	c0.4-0.6,0.9-0.9,1.7-0.9h2.6c0.8,0,1.4,0.3,1.7,0.9c0.3,0.5,0.4,1.1,0.4,2C22,10.6,21.9,11.3,21.6,11.8 M24.5,12.8h-0.9V7.7h-0.7
	V6.8h1.6V12.8z"/>
<path class="st2" d="M47,7.1c-0.3,0.3-0.4,0.8-0.4,1.4h-0.9v0.7h0.9v3.6h0.8V9.2h2.1V8.5h-2.1l0,0v0c0-0.5,0.1-0.7,0.2-0.8
	c0.2-0.1,0.5-0.2,1.1-0.2l0.8,0V6.6l-0.8,0C47.7,6.7,47.3,6.8,47,7.1 M43.7,8.4h-1.9c-0.6,0-1.1,0.2-1.3,0.7
	c-0.2,0.4-0.3,0.8-0.3,1.5s0.1,1.1,0.3,1.5c0.3,0.5,0.7,0.7,1.3,0.7h1.9c0.6,0,1.1-0.2,1.3-0.7c0.2-0.4,0.3-0.8,0.3-1.5
	c0-0.6-0.1-1.1-0.3-1.5C44.7,8.6,44.3,8.4,43.7,8.4 M43.6,12h-1.7c-0.4,0-0.9-0.2-0.9-1.4c0-1.2,0.4-1.4,0.9-1.4h1.7
	c0.4,0,0.9,0.2,0.9,1.4C44.5,11.8,44,12,43.6,12 M37.7,9.3c-1.6,0-1.6,0-2,0c-0.7,0-1.1,0-1.4-0.1c-0.3-0.1-0.4-0.2-0.4-0.8
	c0-0.4,0.1-0.6,0.5-0.7c0.4-0.2,1.2-0.2,2.2-0.2c0.7,0,1.3,0.1,1.6,0.1c0.4,0.1,0.4,0.2,0.4,0.8v0.2h1l0-0.1c0-0.8-0.1-1.1-0.5-1.4
	c-0.4-0.3-1.1-0.5-2.5-0.5c-0.5,0-1.4,0-1.8,0.1c-0.7,0.1-1,0.2-1.3,0.5c-0.3,0.3-0.5,0.7-0.5,1.2c0,0.7,0.2,1.1,0.5,1.4
	c0.3,0.3,0.9,0.4,1.7,0.4c2.9,0,2.9,0,3.2,0.1c0.2,0.1,0.4,0.2,0.4,0.8c0,0.5-0.2,0.7-0.5,0.8l0,0C37.7,11.9,37,12,36.2,12
	c-1.2,0-1.9,0-2.1-0.1c-0.2-0.1-0.3-0.2-0.3-0.9v-0.2h-0.9l0,0.1c0,0.1,0,0.2,0,0.3c0,0.8,0.1,1.1,0.6,1.4c0.4,0.2,0.9,0.3,2.3,0.3
	c1.8,0,2.7-0.1,3.2-0.3l0,0c0.5-0.3,0.7-0.7,0.7-1.5c0-0.5-0.1-0.8-0.3-1.1C39,9.5,38.6,9.3,37.7,9.3 M73.7,8.8
	c-0.3-0.3-0.6-0.3-1.5-0.3c-0.8,0-1.2,0-1.4,0.2c-0.2,0.1-0.3,0.2-0.4,0.3V8.5h-0.8v4.3h0.8v-2c0-0.8,0.1-1.1,0.3-1.3
	c0.3-0.2,0.7-0.3,1.5-0.3c0.5,0,0.8,0.1,0.9,0.2c0.1,0.1,0.2,0.3,0.2,0.8v0.4h0.9V10C74.1,9.4,74,9,73.7,8.8 M79.1,11.4
	c0,0.3,0,0.3-0.1,0.4l0,0c-0.2,0.2-0.5,0.3-1.5,0.3c-1.2,0-1.6-0.1-1.9-0.3c-0.2-0.2-0.3-0.5-0.3-0.9H80l0-0.1c0-1-0.1-1.4-0.4-1.8
	l0,0c-0.4-0.5-0.9-0.6-2.4-0.6c-1,0-1.5,0.1-1.9,0.3c-0.6,0.3-0.8,0.9-0.8,2c0,0.4,0.1,0.8,0.2,1.1c0.1,0.3,0.3,0.5,0.5,0.7
	c0.4,0.3,1,0.4,2.5,0.4c0.9,0,1.4-0.1,1.8-0.3c0.4-0.2,0.6-0.6,0.6-1.1l0-0.1L79.1,11.4L79.1,11.4z M77.2,9.2c1.6,0,1.9,0.2,1.9,1
	h-3.7C75.5,9.4,75.8,9.2,77.2,9.2 M54,11.1c0,0.5,0,0.6-0.1,0.8c-0.1,0.2-0.3,0.2-0.9,0.2c-0.6,0-0.9-0.1-1-0.3
	c-0.1-0.1-0.1-0.1-0.1-0.9l0,0V9.2h2.9V8.5h-2.9v-1H51v1h-1v0.7h1v1.9c0,0.7,0.1,0.9,0.3,1.2c0.3,0.4,0.7,0.5,1.7,0.5
	c0.5,0,0.8,0,1.1-0.1c0.3-0.1,0.5-0.2,0.6-0.4c0.2-0.3,0.2-0.6,0.2-1.2v-0.4H54V11.1z M66.6,8.4L66.6,8.4c-0.1,0-0.2,0-0.3,0
	c-1,0-1.6,0.2-1.9,0.5C64,9.3,64,9.7,64,10v0.1h0.8V10c0-0.3,0-0.4,0.1-0.5c0.1-0.1,0.4-0.3,1.3-0.3c0.1,0,0.2,0,0.3,0
	c0.9,0,1.3,0.1,1.4,0.3l0,0c0.1,0.1,0.1,0.3,0.1,0.7c-0.2,0-0.6,0-0.9,0c-0.3,0-0.6,0-0.7,0l0,0c-0.1,0-0.3,0-0.4,0l-0.1,0
	c-0.8,0-1.3,0-1.6,0.4c-0.2,0.2-0.3,0.5-0.3,1v0c0,0.3,0,0.5,0.1,0.7c0.1,0.3,0.3,0.4,0.7,0.5c0.3,0.1,0.8,0.1,1.3,0.1
	c0,0,0.1,0,0.2,0c0.1,0,0.1,0,0.2,0c1.1,0,1.6-0.1,2-0.3c0.2-0.1,0.3-0.3,0.4-0.6c0-0.2,0-0.5,0-0.8v0c0-0.2,0-0.3,0-0.5
	c0-0.1,0-0.2,0-0.3c0-0.6-0.1-1-0.4-1.3C68.2,8.5,67.6,8.5,66.6,8.4 M68.1,11.1c0,0.2,0,0.4,0,0.6c0,0.1,0,0.2-0.1,0.2
	c0,0-0.1,0.1-0.5,0.1c-0.2,0-0.5,0-1,0c-0.1,0-0.2,0-0.3,0c-0.7,0-1.1,0-1.3-0.1c-0.1,0-0.1-0.1-0.1-0.1c0-0.1,0-0.2,0-0.3l0,0
	c0-0.3,0-0.4,0.1-0.4l0,0c0,0,0.1-0.1,0.3-0.1c0.2,0,0.5,0,0.8,0c0.1,0,0.2,0,0.4,0l0,0c0.1,0,0.4,0,0.7,0
	C67.5,11,67.9,11,68.1,11.1C68.1,11.1,68.1,11.1,68.1,11.1 M61.4,12l-1.3-3.5H59L57.8,12l-1.6-3.5h-0.9l2,4.3h1.1l1.2-3.4l1.2,3.4
	H62l2-4.3h-1L61.4,12z"/>
</svg>
