<?xml version="1.0" encoding="utf-8"?>
<!-- Generator: Adobe Illustrator 21.1.0, SVG Export Plug-In . SVG Version: 6.00 Build 0)  -->
<svg version="1.1" id="Capa_1" xmlns="http://www.w3.org/2000/svg" xmlns:xlink="http://www.w3.org/1999/xlink" x="0px" y="0px"
	 viewBox="0 0 80.2 13.4" style="enable-background:new 0 0 80.2 13.4;" xml:space="preserve">
<style type="text/css">
	.st0{fill:#FFFFFF;}
</style>
<title>1cero1</title>
<g>
	<path class="st0" d="M20.2,5h-2c-0.5,0-1.1,0.2-1.1,1.7c0,1.5,0.5,1.7,1.1,1.7h2c0.5,0,1.1-0.2,1.1-1.7C21.3,5.2,20.7,5,20.2,5
		 M25,0.6H13.4c-1.8,0-3.3,1.5-3.3,3.3v5.6c0,1.8,1.5,3.3,3.3,3.3H25c1.8,0,3.3-1.5,3.3-3.3V3.9C28.3,2.1,26.8,0.6,25,0.6 M15.5,9.2
		h-0.8V5h-0.6V4.2h1.3V9.2z M21.7,8.3c-0.3,0.5-0.8,0.8-1.4,0.8h-2.1c-0.7,0-1.1-0.3-1.4-0.8c-0.2-0.4-0.3-0.9-0.3-1.6
		c0-0.7,0.1-1.3,0.3-1.6c0.3-0.5,0.8-0.8,1.4-0.8h2.1c0.7,0,1.1,0.3,1.4,0.8C21.9,5.4,22,6,22,6.7C22,7.4,21.9,8,21.7,8.3 M24.1,9.2
		h-0.8V5h-0.6V4.2h1.3V9.2z"/>
	<path class="st0" d="M42.7,4.5c-0.3,0.2-0.3,0.6-0.3,1.2h-0.8v0.6h0.8v3h0.7v-3h1.7V5.6h-1.7l0,0v0c0-0.4,0-0.6,0.2-0.7
		c0.1-0.1,0.4-0.2,0.9-0.2l0.7,0V4.1l-0.7,0C43.4,4.2,43,4.3,42.7,4.5 M40,5.6h-1.6c-0.5,0-0.9,0.2-1.1,0.6
		c-0.2,0.3-0.3,0.7-0.3,1.2s0.1,0.9,0.3,1.2c0.2,0.4,0.6,0.6,1.1,0.6H40c0.5,0,0.9-0.2,1.1-0.6c0.2-0.3,0.3-0.7,0.3-1.2
		c0-0.5-0.1-0.9-0.3-1.2C40.9,5.8,40.5,5.6,40,5.6 M39.9,8.6h-1.4c-0.4,0-0.7-0.1-0.7-1.2c0-1,0.3-1.2,0.7-1.2h1.4
		c0.4,0,0.7,0.1,0.7,1.2C40.6,8.4,40.3,8.6,39.9,8.6 M35,6.3c-1.3,0-1.3,0-1.7,0c-0.5,0-0.9,0-1.2-0.1c-0.3-0.1-0.4-0.2-0.4-0.6
		c0-0.4,0.1-0.5,0.4-0.6c0.3-0.1,1-0.2,1.8-0.2c0.6,0,1.1,0,1.3,0.1c0.3,0.1,0.4,0.2,0.4,0.6v0.1h0.8l0-0.1c0-0.7-0.1-0.9-0.4-1.2
		c-0.4-0.3-0.9-0.4-2.1-0.4c-0.4,0-1.1,0-1.5,0.1c-0.6,0.1-0.9,0.2-1.1,0.4c-0.3,0.2-0.4,0.6-0.4,1c0,0.5,0.1,0.9,0.4,1.1
		c0.3,0.2,0.7,0.3,1.4,0.3c2.4,0,2.4,0,2.6,0.1c0.2,0.1,0.3,0.2,0.3,0.6c0,0.4-0.1,0.6-0.4,0.7l0,0c-0.3,0.1-0.9,0.1-1.6,0.1
		c-1,0-1.6,0-1.8-0.1c-0.2-0.1-0.2-0.1-0.3-0.7V7.5H31l0,0.1c0,0.1,0,0.2,0,0.2c0,0.6,0.1,0.9,0.5,1.2c0.3,0.2,0.8,0.3,1.9,0.3
		c1.5,0,2.2-0.1,2.6-0.3l0,0c0.4-0.2,0.6-0.6,0.6-1.3c0-0.4-0.1-0.7-0.2-0.9C36.1,6.5,35.8,6.3,35,6.3 M64.8,5.9
		c-0.2-0.2-0.5-0.3-1.2-0.3c-0.7,0-1,0-1.2,0.1c-0.1,0.1-0.3,0.1-0.3,0.3V5.6h-0.7v3.6h0.7V7.6c0-0.6,0.1-0.9,0.3-1.1
		c0.2-0.2,0.6-0.2,1.2-0.2c0.4,0,0.7,0,0.8,0.1c0.1,0.1,0.2,0.3,0.2,0.6v0.3h0.7V6.9C65.2,6.4,65.1,6.1,64.8,5.9 M69.4,8.1
		c0,0.2,0,0.3-0.1,0.3l0,0c-0.2,0.2-0.5,0.2-1.2,0.2c-1,0-1.4-0.1-1.6-0.3c-0.1-0.1-0.2-0.4-0.2-0.8h3.8l0-0.1
		c0-0.8-0.1-1.2-0.4-1.5l0,0c-0.3-0.4-0.8-0.5-2-0.5c-0.9,0-1.2,0.1-1.5,0.2c-0.5,0.3-0.7,0.8-0.7,1.6c0,0.4,0,0.7,0.1,0.9
		c0.1,0.3,0.2,0.4,0.4,0.6c0.3,0.3,0.8,0.3,2.1,0.3c0.7,0,1.2-0.1,1.5-0.3c0.3-0.2,0.5-0.5,0.5-0.9l0-0.1L69.4,8.1L69.4,8.1z
		 M67.7,6.2c1.3,0,1.6,0.2,1.6,0.8h-3.1C66.3,6.4,66.6,6.2,67.7,6.2 M48.6,7.8c0,0.4,0,0.5-0.1,0.6c-0.1,0.1-0.2,0.2-0.7,0.2
		c-0.5,0-0.7-0.1-0.8-0.2c-0.1-0.1-0.1-0.1-0.1-0.8l0,0V6.3h2.4V5.6h-2.4V4.8h-0.7v0.9h-0.8v0.6h0.8v1.6c0,0.6,0,0.8,0.2,1
		c0.2,0.3,0.6,0.4,1.4,0.4c0.4,0,0.7,0,0.9-0.1c0.2-0.1,0.4-0.2,0.5-0.4c0.2-0.2,0.2-0.5,0.2-1V7.5h-0.7V7.8z M59,5.6L59,5.6
		c-0.1,0-0.2,0-0.2,0c-0.8,0-1.3,0.1-1.6,0.4c-0.3,0.3-0.3,0.6-0.3,0.9V7h0.7V6.9c0-0.2,0-0.3,0.1-0.4c0.1-0.1,0.4-0.2,1.1-0.2
		c0.1,0,0.1,0,0.2,0c0.7,0,1.1,0.1,1.2,0.2l0,0c0.1,0.1,0.1,0.3,0.1,0.6c-0.2,0-0.5,0-0.8,0c-0.3,0-0.5,0-0.6,0l0,0
		c-0.1,0-0.2,0-0.3,0l0,0c-0.6,0-1.1,0-1.4,0.3c-0.2,0.2-0.3,0.4-0.3,0.8v0c0,0.2,0,0.4,0.1,0.6c0.1,0.2,0.3,0.4,0.6,0.4
		c0.3,0.1,0.7,0.1,1.1,0.1c0,0,0.1,0,0.1,0c0,0,0.1,0,0.1,0c0.9,0,1.4,0,1.7-0.3c0.2-0.1,0.3-0.3,0.3-0.5c0-0.2,0-0.4,0-0.6v0
		c0-0.1,0-0.3,0-0.4c0-0.1,0-0.2,0-0.3c0-0.5-0.1-0.8-0.3-1.1C60.3,5.7,59.8,5.6,59,5.6 M60.3,7.8c0,0.2,0,0.4,0,0.5
		c0,0.1,0,0.1-0.1,0.2c0,0-0.1,0.1-0.4,0.1c-0.2,0-0.5,0-0.8,0c-0.1,0-0.2,0-0.2,0c-0.6,0-0.9,0-1-0.1c-0.1,0-0.1,0-0.1-0.1
		c0,0,0-0.1,0-0.2l0,0c0-0.2,0-0.3,0.1-0.3l0,0c0,0,0.1-0.1,0.3-0.1c0.2,0,0.4,0,0.6,0c0.1,0,0.2,0,0.3,0l0,0c0.1,0,0.3,0,0.5,0
		C59.7,7.8,60.1,7.8,60.3,7.8C60.3,7.8,60.3,7.8,60.3,7.8 M54.7,8.5l-1-2.9h-1l-1,2.9l-1.3-2.9h-0.8l1.7,3.6h0.9l1-2.9l1,2.9h0.9
		l1.7-3.6H56L54.7,8.5z"/>
</g>
</svg>
