<svg id="Capa_1" data-name="Capa 1" xmlns="http://www.w3.org/2000/svg" viewBox="0 0 219.96 68.94"><defs><style>.cls-1{fill:#fff;}</style></defs><path class="cls-1" d="M62.42,59.69h1.82a5.37,5.37,0,0,1,2.61.49,3.68,3.68,0,0,1,1.4,1.59,6.26,6.26,0,0,1,.24,4.51,4,4,0,0,1-.85,1.46,2.85,2.85,0,0,1-1.18.8,7.31,7.31,0,0,1-2.2.23H62.42Zm1.52,1.66v5.73h.71a3.24,3.24,0,0,0,1.53-.27,2,2,0,0,0,.77-.92,3.68,3.68,0,0,0,.3-1.58,3.27,3.27,0,0,0-.71-2.24,2.66,2.66,0,0,0-2.08-.72Z"/><path class="cls-1" d="M72.89,61.88a3,3,0,0,1,1.59.47,3.36,3.36,0,0,1,1.16,1.29,3.92,3.92,0,0,1,.41,1.76,3.86,3.86,0,0,1-.42,1.78,3.26,3.26,0,0,1-1.14,1.29,2.88,2.88,0,0,1-1.59.47,2.82,2.82,0,0,1-2.19-1,3.66,3.66,0,0,1-.9-2.5,3.61,3.61,0,0,1,1-2.62A2.81,2.81,0,0,1,72.89,61.88Zm0,1.58a1.48,1.48,0,0,0-1.16.55,2.07,2.07,0,0,0-.46,1.4,2.16,2.16,0,0,0,.45,1.42,1.47,1.47,0,0,0,1.16.54,1.46,1.46,0,0,0,1.17-.55,2.11,2.11,0,0,0,.47-1.41A2.13,2.13,0,0,0,74.09,64,1.48,1.48,0,0,0,72.92,63.46Z"/><path class="cls-1" d="M77.27,62.05h1.49v.69a3.56,3.56,0,0,1,.92-.67,2,2,0,0,1,.85-.19,1.93,1.93,0,0,1,1.5.69,2.59,2.59,0,0,1,.52,1.76v4.44H81.07V65.83a8.83,8.83,0,0,0-.09-1.6,1.13,1.13,0,0,0-.34-.6.83.83,0,0,0-.58-.21,1,1,0,0,0-.78.34,1.88,1.88,0,0,0-.45.95,8.82,8.82,0,0,0-.07,1.36v2.7H77.27Z"/><path class="cls-1" d="M88.39,59.46h1.49v9.31H88.39v-.71a3,3,0,0,1-.88.67,2.17,2.17,0,0,1-1,.21,2.54,2.54,0,0,1-2-1,3.79,3.79,0,0,1-.84-2.51,3.85,3.85,0,0,1,.82-2.55,2.47,2.47,0,0,1,2-1,2.29,2.29,0,0,1,1,.22,3.08,3.08,0,0,1,.87.69Zm-1.57,4a1.43,1.43,0,0,0-1.15.56,2.4,2.4,0,0,0,0,2.84,1.42,1.42,0,0,0,1.14.57A1.47,1.47,0,0,0,88,66.84a2.15,2.15,0,0,0,.46-1.44A2.09,2.09,0,0,0,88,64,1.46,1.46,0,0,0,86.82,63.43Z"/><path class="cls-1" d="M97.36,65.9h-4.8A1.87,1.87,0,0,0,93.11,67a1.59,1.59,0,0,0,1.15.43,1.88,1.88,0,0,0,1.44-.66l1.26.66a3.08,3.08,0,0,1-1.12,1.12,3.21,3.21,0,0,1-1.56.36,2.9,2.9,0,0,1-2.29-1,3.64,3.64,0,0,1-.88-2.49A3.81,3.81,0,0,1,92,62.89a2.81,2.81,0,0,1,2.2-1,2.91,2.91,0,0,1,2.29,1,3.94,3.94,0,0,1,.88,2.68Zm-1.5-1.33a1.72,1.72,0,0,0-.58-.92,1.59,1.59,0,0,0-1-.35,1.64,1.64,0,0,0-1.1.4,2.13,2.13,0,0,0-.55.87Z"/><path class="cls-1" d="M105.34,63l-.92,1a1.53,1.53,0,0,0-1-.63.62.62,0,0,0-.4.12.39.39,0,0,0-.14.3.38.38,0,0,0,.09.25,1.55,1.55,0,0,0,.45.31l.54.31a3.34,3.34,0,0,1,1.19,1,2.11,2.11,0,0,1,.32,1.18,2.05,2.05,0,0,1-.58,1.49,2.08,2.08,0,0,1-1.56.6,2.39,2.39,0,0,1-2.08-1.15l.92-1.13a2.16,2.16,0,0,0,.61.56,1.3,1.3,0,0,0,.63.21.68.68,0,0,0,.48-.16.47.47,0,0,0,.18-.37c0-.26-.22-.51-.65-.76l-.51-.28a2.38,2.38,0,0,1-1.44-2.06,1.9,1.9,0,0,1,.54-1.36,1.88,1.88,0,0,1,1.39-.56,2.22,2.22,0,0,1,1.1.28A2.52,2.52,0,0,1,105.34,63Z"/><path class="cls-1" d="M106.62,62.05h1.51v3.23a4.93,4.93,0,0,0,.12,1.32,1.21,1.21,0,0,0,.37.57,1.09,1.09,0,0,0,1.26,0,1.23,1.23,0,0,0,.39-.59,5.25,5.25,0,0,0,.09-1.24V62.05h1.49V64.9a8,8,0,0,1-.24,2.4,2.63,2.63,0,0,1-.89,1.22,2.82,2.82,0,0,1-3.07-.07,2.63,2.63,0,0,1-.85-1.38,9.14,9.14,0,0,1-.18-2.22Z"/><path class="cls-1" d="M117,63l-.93,1a1.51,1.51,0,0,0-1-.63.62.62,0,0,0-.4.12.39.39,0,0,0-.14.3.38.38,0,0,0,.09.25,1.55,1.55,0,0,0,.45.31l.55.31a3.29,3.29,0,0,1,1.18,1,2.12,2.12,0,0,1,.33,1.18A2,2,0,0,1,115,68.94a2.39,2.39,0,0,1-2.08-1.15l.92-1.13a2.19,2.19,0,0,0,.62.56,1.23,1.23,0,0,0,.62.21.68.68,0,0,0,.48-.16.47.47,0,0,0,.18-.37c0-.26-.22-.51-.65-.76l-.5-.28a2.38,2.38,0,0,1-1.45-2.06,1.87,1.87,0,0,1,.55-1.36,1.85,1.85,0,0,1,1.39-.56,2.21,2.21,0,0,1,1.09.28A2.64,2.64,0,0,1,117,63Z"/><path class="cls-1" d="M125.81,59.46h1.49v9.31h-1.49v-.71a2.9,2.9,0,0,1-.88.67,2.17,2.17,0,0,1-1,.21,2.56,2.56,0,0,1-2-1,3.79,3.79,0,0,1-.84-2.51,3.85,3.85,0,0,1,.82-2.55,2.47,2.47,0,0,1,2-1,2.28,2.28,0,0,1,1,.22,3.08,3.08,0,0,1,.87.69Zm-1.57,4a1.43,1.43,0,0,0-1.15.56,2.1,2.1,0,0,0-.46,1.41,2.16,2.16,0,0,0,.47,1.43,1.42,1.42,0,0,0,1.15.57,1.46,1.46,0,0,0,1.16-.56,2.15,2.15,0,0,0,.47-1.44,2.1,2.1,0,0,0-.47-1.42A1.46,1.46,0,0,0,124.24,63.43Z"/><path class="cls-1" d="M129.4,59.28a.88.88,0,0,1,.67.32,1.15,1.15,0,0,1,.28.78,1.11,1.11,0,0,1-.28.77.84.84,0,0,1-.66.32.88.88,0,0,1-.68-.32,1.16,1.16,0,0,1-.28-.79,1.08,1.08,0,0,1,.28-.76A.85.85,0,0,1,129.4,59.28Zm-.75,2.77h1.49v6.72h-1.49Z"/><path class="cls-1" d="M130.86,62.05h1.52l1.51,4,1.5-4h1.51l-2.53,6.72h-1Z"/><path class="cls-1" d="M138.36,59.28a.86.86,0,0,1,.67.32,1.23,1.23,0,0,1,0,1.55.87.87,0,0,1-1.35,0,1.16,1.16,0,0,1-.28-.79,1.08,1.08,0,0,1,.28-.76A.86.86,0,0,1,138.36,59.28Zm-.75,2.77h1.5v6.72h-1.5Z"/><path class="cls-1" d="M144.11,63l-.93,1a1.51,1.51,0,0,0-1-.63.62.62,0,0,0-.4.12.39.39,0,0,0-.14.3.38.38,0,0,0,.09.25,1.55,1.55,0,0,0,.45.31l.55.31a3.29,3.29,0,0,1,1.18,1,2.12,2.12,0,0,1,.33,1.18,2,2,0,0,1-2.15,2.09A2.39,2.39,0,0,1,140,67.79l.92-1.13a2.19,2.19,0,0,0,.62.56,1.23,1.23,0,0,0,.62.21.68.68,0,0,0,.48-.16.47.47,0,0,0,.18-.37c0-.26-.22-.51-.65-.76l-.5-.28a2.38,2.38,0,0,1-1.45-2.06,1.88,1.88,0,0,1,1.94-1.92,2.21,2.21,0,0,1,1.09.28A2.64,2.64,0,0,1,144.11,63Z"/><path class="cls-1" d="M149.79,62.05h1.49v6.72h-1.49v-.71a3.16,3.16,0,0,1-.88.67,2.21,2.21,0,0,1-1,.21,2.54,2.54,0,0,1-2-1,3.79,3.79,0,0,1-.84-2.51,3.9,3.9,0,0,1,.81-2.55,2.48,2.48,0,0,1,2-1,2.33,2.33,0,0,1,1,.22,3.08,3.08,0,0,1,.87.69Zm-1.58,1.38a1.44,1.44,0,0,0-1.15.56,2.44,2.44,0,0,0,0,2.84,1.44,1.44,0,0,0,1.15.57,1.47,1.47,0,0,0,1.17-.56,2.15,2.15,0,0,0,.46-1.44,2.09,2.09,0,0,0-.46-1.42A1.46,1.46,0,0,0,148.21,63.43Z"/><path class="cls-1" d="M156.43,63l-.92,1a1.53,1.53,0,0,0-1-.63.61.61,0,0,0-.39.12.39.39,0,0,0-.14.3.38.38,0,0,0,.09.25,1.61,1.61,0,0,0,.44.31l.55.31a3.34,3.34,0,0,1,1.19,1,2.19,2.19,0,0,1,.32,1.18,2.05,2.05,0,0,1-.58,1.49,2.08,2.08,0,0,1-1.56.6,2.39,2.39,0,0,1-2.08-1.15l.92-1.13a2.16,2.16,0,0,0,.61.56,1.3,1.3,0,0,0,.63.21.7.7,0,0,0,.48-.16.47.47,0,0,0,.18-.37c0-.26-.22-.51-.66-.76l-.5-.28a2.38,2.38,0,0,1-1.44-2.06,1.9,1.9,0,0,1,.54-1.36,1.87,1.87,0,0,1,1.39-.56,2.19,2.19,0,0,1,1.09.28A2.46,2.46,0,0,1,156.43,63Z"/><path class="cls-1" d="M160.5,62.05h1.28v.85a1.74,1.74,0,0,1,.56-.76,1.18,1.18,0,0,1,.75-.26,1.23,1.23,0,0,1,.61.17l-.47,1.45a.92.92,0,0,0-.43-.15c-.23,0-.42.16-.58.48a4.88,4.88,0,0,0-.24,1.89v3H160.5Z"/><path class="cls-1" d="M165,59.28a.86.86,0,0,1,.67.32,1.23,1.23,0,0,1,0,1.55.87.87,0,0,1-1.35,0,1.16,1.16,0,0,1-.28-.79,1.08,1.08,0,0,1,.28-.76A.86.86,0,0,1,165,59.28Zm-.75,2.77h1.5v6.72h-1.5Z"/><path class="cls-1" d="M167.12,62.05h1.5v.69a3.25,3.25,0,0,1,.92-.67,1.91,1.91,0,0,1,.84-.19,1.93,1.93,0,0,1,1.5.69,2.59,2.59,0,0,1,.52,1.76v4.44h-1.48V65.83a8.83,8.83,0,0,0-.09-1.6,1.12,1.12,0,0,0-.33-.6.87.87,0,0,0-.59-.21,1,1,0,0,0-.78.34,2.06,2.06,0,0,0-.45.95,9.32,9.32,0,0,0-.06,1.36v2.7h-1.5Z"/><path class="cls-1" d="M178.24,59.46h1.49v9.31h-1.49v-.71a2.9,2.9,0,0,1-.88.67,2.17,2.17,0,0,1-1,.21,2.56,2.56,0,0,1-2-1,3.79,3.79,0,0,1-.84-2.51,3.85,3.85,0,0,1,.82-2.55,2.47,2.47,0,0,1,2-1,2.28,2.28,0,0,1,1,.22,3.08,3.08,0,0,1,.87.69Zm-1.57,4a1.43,1.43,0,0,0-1.15.56,2.1,2.1,0,0,0-.46,1.41,2.16,2.16,0,0,0,.47,1.43,1.42,1.42,0,0,0,1.14.57,1.47,1.47,0,0,0,1.17-.56,2.15,2.15,0,0,0,.47-1.44,2.1,2.1,0,0,0-.47-1.42A1.46,1.46,0,0,0,176.67,63.43Z"/><path class="cls-1" d="M187.21,65.9h-4.8A1.87,1.87,0,0,0,183,67a1.6,1.6,0,0,0,1.16.43,1.87,1.87,0,0,0,1.43-.66l1.26.66a3.08,3.08,0,0,1-1.12,1.12,3.21,3.21,0,0,1-1.56.36,2.9,2.9,0,0,1-2.29-1,3.64,3.64,0,0,1-.88-2.49,3.81,3.81,0,0,1,.88-2.56,2.81,2.81,0,0,1,2.2-1,2.91,2.91,0,0,1,2.29,1,3.94,3.94,0,0,1,.88,2.68Zm-1.5-1.33a1.72,1.72,0,0,0-.58-.92,1.59,1.59,0,0,0-1-.35,1.64,1.64,0,0,0-1.1.4,2.13,2.13,0,0,0-.55.87Z"/><path class="cls-1" d="M188.42,62.05h1.49v.69a3.56,3.56,0,0,1,.92-.67,2,2,0,0,1,2.35.5,2.64,2.64,0,0,1,.52,1.76v4.44h-1.48V65.83a7.71,7.71,0,0,0-.1-1.6,1.06,1.06,0,0,0-.33-.6.85.85,0,0,0-.59-.21,1,1,0,0,0-.77.34,1.88,1.88,0,0,0-.45.95,7.65,7.65,0,0,0-.07,1.36v2.7h-1.49Z"/><path class="cls-1" d="M198.26,62.05h1.5v.77a2.56,2.56,0,0,1,.85-.71,2.31,2.31,0,0,1,1-.23,1.72,1.72,0,0,1,1,.31,2.06,2.06,0,0,1,.72.9,2.51,2.51,0,0,1,.87-.9,2.16,2.16,0,0,1,1.13-.31,1.92,1.92,0,0,1,1.12.33,1.85,1.85,0,0,1,.69.87,5.23,5.23,0,0,1,.21,1.75v3.94h-1.5V65.36a3.23,3.23,0,0,0-.25-1.55.83.83,0,0,0-.76-.4,1.07,1.07,0,0,0-.68.24,1.48,1.48,0,0,0-.46.69,5.11,5.11,0,0,0-.14,1.4v3h-1.51V65.51a5.63,5.63,0,0,0-.11-1.3,1.18,1.18,0,0,0-.36-.6.83.83,0,0,0-.57-.2,1,1,0,0,0-.68.25,1.47,1.47,0,0,0-.45.7,4.86,4.86,0,0,0-.15,1.42v3h-1.5Z"/><path class="cls-1" d="M213.2,62.05h1.49v6.72H213.2v-.71a2.9,2.9,0,0,1-.88.67,2.17,2.17,0,0,1-.95.21,2.56,2.56,0,0,1-2-1,3.79,3.79,0,0,1-.84-2.51,3.85,3.85,0,0,1,.82-2.55,2.47,2.47,0,0,1,2-1,2.28,2.28,0,0,1,1,.22,3.08,3.08,0,0,1,.87.69Zm-1.57,1.38a1.43,1.43,0,0,0-1.15.56A2.1,2.1,0,0,0,210,65.4a2.16,2.16,0,0,0,.47,1.43,1.42,1.42,0,0,0,1.14.57,1.47,1.47,0,0,0,1.17-.56,2.15,2.15,0,0,0,.47-1.44A2.1,2.1,0,0,0,212.8,64,1.46,1.46,0,0,0,211.63,63.43Zm.4-5h1.77l-2,2.42h-1.07Z"/><path class="cls-1" d="M219.85,63l-.93,1a1.49,1.49,0,0,0-1-.63.57.57,0,0,0-.39.12.37.37,0,0,0-.15.3.38.38,0,0,0,.09.25,1.55,1.55,0,0,0,.45.31l.55.31a3.29,3.29,0,0,1,1.18,1,2.12,2.12,0,0,1,.33,1.18,2,2,0,0,1-2.15,2.09,2.39,2.39,0,0,1-2.08-1.15l.92-1.13a2.19,2.19,0,0,0,.62.56,1.23,1.23,0,0,0,.62.21.68.68,0,0,0,.48-.16.47.47,0,0,0,.18-.37c0-.26-.22-.51-.65-.76l-.5-.28A2.38,2.38,0,0,1,216,63.8a1.87,1.87,0,0,1,.55-1.36,1.85,1.85,0,0,1,1.39-.56,2.21,2.21,0,0,1,1.09.28A2.64,2.64,0,0,1,219.85,63Z"/><path class="cls-1" d="M179.6,49.08c0-1.51,0-10.72,0-10.72,0-3.6-4.15-5.67-4.62-5.9h0v-.51l.06,0c5.48-1.67,5.69-8.8,5.69-8.8.2-12.85-11.54-12.22-11.54-12.22H151.55a4.33,4.33,0,0,0-4.33,4.34V52.31h7.94V35.91h11.07a5.18,5.18,0,0,1,5.18,5.18V51.87h9.26v-.71A2.38,2.38,0,0,1,179.6,49.08Zm-13-19.82H155.36V17.63h11.28a5.82,5.82,0,0,1,0,11.63ZM125.74,10.9H112.06a3.68,3.68,0,0,0-3.68,3.68V52.31h17.36a18.09,18.09,0,0,0,18.09-18.1V29A18.09,18.09,0,0,0,125.74,10.9Zm9,23.39a10.37,10.37,0,0,1-10.37,10.37h-7.57V18h7.57A10.37,10.37,0,0,1,134.71,28.4ZM84.62,10.15A19,19,0,0,0,71.79,14.8a22.37,22.37,0,0,0-7.11,16.58,22.24,22.24,0,0,0,6.44,16.06,19.13,19.13,0,0,0,13.31,5.32A20.57,20.57,0,0,0,98.68,46.9c3.84-3.87,5.87-9.44,5.87-15.52A22,22,0,0,0,97,14.46,19.25,19.25,0,0,0,84.62,10.15Zm0,35.38A10.19,10.19,0,0,1,77.7,43,15.71,15.71,0,0,1,73,31.38a16,16,0,0,1,3.7-10.69,10.65,10.65,0,0,1,8-3.45,11.59,11.59,0,0,1,9.29,5.22,15.63,15.63,0,0,1,2.35,8.92A15.44,15.44,0,0,1,92.54,42,11,11,0,0,1,84.62,45.53ZM213,29.66c4.94-2.19,4.54-8.92,4.54-8.92,0-5.57-3.21-8.06-6.06-9.11A12.68,12.68,0,0,0,209,11a24.59,24.59,0,0,0-2.91-.12H189.64a4.52,4.52,0,0,0-4.52,4.52V51.8h21.69s1.59,0,2-.09c10.52-1.17,10.28-11.87,10.28-11.87C219.11,31.54,213,29.66,213,29.66Zm-19.59-11.8h11.62a4.49,4.49,0,1,1,0,9H193.43Zm16.88,21.46a5.45,5.45,0,0,1-5.45,5.45H193.43V33.86h11.43a5.45,5.45,0,0,1,5.45,5.46Z"/><path class="cls-1" d="M19.27,21.53l-1.75-.43,6.23-3.86V24l-1.23-.93-12,19.42a3.84,3.84,0,0,1-3.27,1.83H2.43L4,40.73H5.42A3.83,3.83,0,0,0,8.7,38.88Z"/><path class="cls-1" d="M49,8.26l-3.17-.63L58.12,0V13.92L55.6,12,25.05,62.15c-1.54,2.52-6.49,6-11.18,6H4.75l3.32-7.43,4.09-.08a9.23,9.23,0,0,0,7.33-4.14Z"/><path class="cls-1" d="M40,6.66,31.44,12l2.72.29-.38.59-1.05,1.66L31.14,17l-2,3.22L26.76,24l-2.54,4L21.6,32.14,19,36.23l-2.41,3.82-2.14,3.39-1.74,2.75c-.23.38-.47.75-.71,1.12A5.07,5.07,0,0,1,8.9,49.6a10.59,10.59,0,0,1-4.65-.14L.94,54.54s6.53,2,11.58-.74a6.73,6.73,0,0,0,1.74-1.45c.74-.76,1.43-1.56,2.11-2.38.83-1,1.64-2,2.39-3s1.22-1.87,1.8-2.83l1.81-3,2.26-3.71,2.55-4.18,2.65-4.35,2.57-4.24,2.34-3.83,1.91-3.13L38,15.54l.53-.89L40,16.42Z"/><path class="cls-1" d="M21.31,5.24C11.92,6.46,5.75,11.44,6.83,21.6,7.92,29.67,13.52,38.21,19,44.41c6.08,5.8,14.45,10.45,23,11.33,9.66.69,14.78-5.56,15.11-14.83a1.68,1.68,0,0,1,3.3-.4,15.3,15.3,0,0,1,.5,4c.49,11-8.68,18.55-19.13,18.26A37.36,37.36,0,0,1,26.28,59,43.79,43.79,0,0,1,10.59,47C2.13,36.11-6,17.83,6.25,6.67A18.14,18.14,0,0,1,17.62,2.72a14.73,14.73,0,0,1,3.92.36,1.11,1.11,0,0,1-.23,2.16Z"/></svg>