<svg id="Capa_1" data-name="Capa 1" xmlns="http://www.w3.org/2000/svg" viewBox="0 0 25.14 25"><defs><style>.cls-1{fill:#7a8489;}</style></defs><path class="cls-1" d="M11.4,22.05a14.4,14.4,0,0,1-3.66-.95,14,14,0,0,1-3.23-1.82L6.79,16a17.4,17.4,0,0,0,2.32,1.5,8.62,8.62,0,0,0,2.44.86V13.67a19.94,19.94,0,0,1-2.76-1,6.88,6.88,0,0,1-2-1.25A4.88,4.88,0,0,1,5.66,9.74a6.08,6.08,0,0,1-.39-2.26V7.42A5.3,5.3,0,0,1,5.71,5.2,4.92,4.92,0,0,1,7,3.48,6.16,6.16,0,0,1,8.89,2.29a9.71,9.71,0,0,1,2.51-.6V0h3V1.75a12.47,12.47,0,0,1,5.43,2.16l-2,3.42a16.84,16.84,0,0,0-1.78-1,8.52,8.52,0,0,0-1.84-.68V10a11.18,11.18,0,0,1,4.84,2.36,5.23,5.23,0,0,1,1.5,3.92v.06a5.29,5.29,0,0,1-.45,2.21,5.15,5.15,0,0,1-1.26,1.73A6.79,6.79,0,0,1,17,21.5a9.36,9.36,0,0,1-2.54.61V25h-3Zm.15-16.71A2.71,2.71,0,0,0,10,6a1.62,1.62,0,0,0-.48,1.19v0a1.75,1.75,0,0,0,.41,1.16,3.9,3.9,0,0,0,1.61.92Zm2.74,13.12c1.38-.22,2.08-.84,2.08-1.87v-.06a1.77,1.77,0,0,0-.44-1.24,4.2,4.2,0,0,0-1.64-.92Z"/></svg>