<svg id="Capa_1" data-name="Capa 1" xmlns="http://www.w3.org/2000/svg" xmlns:xlink="http://www.w3.org/1999/xlink" viewBox="0 0 25.14 25"><defs><style>.cls-1{fill:#fff;}.cls-2{clip-path:url(#clip-path);}.cls-3{fill:#2f4e7c;}.cls-4{fill:#b7243a;}</style><clipPath id="clip-path"><rect class="cls-1" width="25.14" height="25" rx="4.13"/></clipPath></defs><rect class="cls-1" width="25.14" height="25" rx="4.13"/><g class="cls-2"><rect class="cls-3" width="18.87" height="13.48"/><polygon class="cls-1" points="3.19 1.95 3.42 2.49 3.93 2.49 3.56 2.86 3.65 3.37 3.19 3.13 2.73 3.37 2.82 2.86 2.45 2.49 2.96 2.49 3.19 1.95"/><polygon class="cls-1" points="6.29 1.95 6.52 2.49 7.03 2.49 6.66 2.86 6.75 3.37 6.29 3.13 5.83 3.37 5.92 2.86 5.55 2.49 6.06 2.49 6.29 1.95"/><polygon class="cls-1" points="9.39 1.95 9.62 2.49 10.13 2.49 9.76 2.86 9.85 3.37 9.39 3.13 8.93 3.37 9.02 2.86 8.65 2.49 9.16 2.49 9.39 1.95"/><polygon class="cls-1" points="12.49 1.95 12.72 2.49 13.24 2.49 12.87 2.86 12.95 3.37 12.49 3.13 12.04 3.37 12.12 2.86 11.75 2.49 12.27 2.49 12.49 1.95"/><polygon class="cls-1" points="15.6 1.95 15.82 2.49 16.34 2.49 15.97 2.86 16.05 3.37 15.6 3.13 15.14 3.37 15.22 2.86 14.85 2.49 15.37 2.49 15.6 1.95"/><polygon class="cls-1" points="3.19 4.61 3.42 5.15 3.93 5.15 3.56 5.51 3.65 6.02 3.19 5.78 2.73 6.02 2.82 5.51 2.45 5.15 2.96 5.15 3.19 4.61"/><polygon class="cls-1" points="6.29 4.61 6.52 5.15 7.03 5.15 6.66 5.51 6.75 6.02 6.29 5.78 5.83 6.02 5.92 5.51 5.55 5.15 6.06 5.15 6.29 4.61"/><polygon class="cls-1" points="9.39 4.61 9.62 5.15 10.13 5.15 9.76 5.51 9.85 6.02 9.39 5.78 8.93 6.02 9.02 5.51 8.65 5.15 9.16 5.15 9.39 4.61"/><polygon class="cls-1" points="12.49 4.61 12.72 5.15 13.24 5.15 12.87 5.51 12.95 6.02 12.49 5.78 12.04 6.02 12.12 5.51 11.75 5.15 12.27 5.15 12.49 4.61"/><polygon class="cls-1" points="15.6 4.61 15.82 5.15 16.34 5.15 15.97 5.51 16.05 6.02 15.6 5.78 15.14 6.02 15.22 5.51 14.85 5.15 15.37 5.15 15.6 4.61"/><polygon class="cls-1" points="3.19 7.27 3.42 7.81 3.93 7.81 3.56 8.17 3.65 8.68 3.19 8.44 2.73 8.68 2.82 8.17 2.45 7.81 2.96 7.81 3.19 7.27"/><polygon class="cls-1" points="6.29 7.27 6.52 7.81 7.03 7.81 6.66 8.17 6.75 8.68 6.29 8.44 5.83 8.68 5.92 8.17 5.55 7.81 6.06 7.81 6.29 7.27"/><polygon class="cls-1" points="9.39 7.27 9.62 7.81 10.13 7.81 9.76 8.17 9.85 8.68 9.39 8.44 8.93 8.68 9.02 8.17 8.65 7.81 9.16 7.81 9.39 7.27"/><polygon class="cls-1" points="12.49 7.27 12.72 7.81 13.24 7.81 12.87 8.17 12.95 8.68 12.49 8.44 12.04 8.68 12.12 8.17 11.75 7.81 12.27 7.81 12.49 7.27"/><polygon class="cls-1" points="15.6 7.27 15.82 7.81 16.34 7.81 15.97 8.17 16.05 8.68 15.6 8.44 15.14 8.68 15.22 8.17 14.85 7.81 15.37 7.81 15.6 7.27"/><polygon class="cls-1" points="3.19 9.93 3.42 10.47 3.93 10.47 3.56 10.83 3.65 11.34 3.19 11.1 2.73 11.34 2.82 10.83 2.45 10.47 2.96 10.47 3.19 9.93"/><polygon class="cls-1" points="6.29 9.93 6.52 10.47 7.03 10.47 6.66 10.83 6.75 11.34 6.29 11.1 5.83 11.34 5.92 10.83 5.55 10.47 6.06 10.47 6.29 9.93"/><polygon class="cls-1" points="9.39 9.93 9.62 10.47 10.13 10.47 9.76 10.83 9.85 11.34 9.39 11.1 8.93 11.34 9.02 10.83 8.65 10.47 9.16 10.47 9.39 9.93"/><polygon class="cls-1" points="12.49 9.93 12.72 10.47 13.24 10.47 12.87 10.83 12.95 11.34 12.49 11.1 12.04 11.34 12.12 10.83 11.75 10.47 12.27 10.47 12.49 9.93"/><polygon class="cls-1" points="15.6 9.93 15.82 10.47 16.34 10.47 15.97 10.83 16.05 11.34 15.6 11.1 15.14 11.34 15.22 10.83 14.85 10.47 15.37 10.47 15.6 9.93"/><polygon class="cls-1" points="1.64 0.63 1.87 1.17 2.38 1.17 2.01 1.53 2.1 2.04 1.64 1.8 1.18 2.04 1.27 1.53 0.9 1.17 1.41 1.17 1.64 0.63"/><polygon class="cls-1" points="4.74 0.63 4.97 1.17 5.48 1.17 5.11 1.53 5.2 2.04 4.74 1.8 4.28 2.04 4.37 1.53 4 1.17 4.51 1.17 4.74 0.63"/><polygon class="cls-1" points="7.84 0.63 8.07 1.17 8.58 1.17 8.21 1.53 8.3 2.04 7.84 1.8 7.38 2.04 7.47 1.53 7.1 1.17 7.61 1.17 7.84 0.63"/><polygon class="cls-1" points="10.94 0.63 11.17 1.17 11.69 1.17 11.31 1.53 11.4 2.04 10.94 1.8 10.48 2.04 10.57 1.53 10.2 1.17 10.71 1.17 10.94 0.63"/><polygon class="cls-1" points="14.04 0.63 14.27 1.17 14.79 1.17 14.42 1.53 14.5 2.04 14.04 1.8 13.59 2.04 13.67 1.53 13.3 1.17 13.81 1.17 14.04 0.63"/><polygon class="cls-1" points="17.15 0.63 17.38 1.17 17.89 1.17 17.52 1.53 17.61 2.04 17.15 1.8 16.69 2.04 16.77 1.53 16.4 1.17 16.92 1.17 17.15 0.63"/><polygon class="cls-1" points="1.64 3.28 1.87 3.82 2.38 3.82 2.01 4.18 2.1 4.7 1.64 4.45 1.18 4.7 1.27 4.18 0.9 3.82 1.41 3.82 1.64 3.28"/><polygon class="cls-1" points="4.74 3.28 4.97 3.82 5.48 3.82 5.11 4.18 5.2 4.7 4.74 4.45 4.28 4.7 4.37 4.18 4 3.82 4.51 3.82 4.74 3.28"/><polygon class="cls-1" points="7.84 3.28 8.07 3.82 8.58 3.82 8.21 4.18 8.3 4.7 7.84 4.45 7.38 4.7 7.47 4.18 7.1 3.82 7.61 3.82 7.84 3.28"/><polygon class="cls-1" points="10.94 3.28 11.17 3.82 11.69 3.82 11.31 4.18 11.4 4.7 10.94 4.45 10.48 4.7 10.57 4.18 10.2 3.82 10.71 3.82 10.94 3.28"/><polygon class="cls-1" points="14.04 3.28 14.27 3.82 14.79 3.82 14.42 4.18 14.5 4.7 14.04 4.45 13.59 4.7 13.67 4.18 13.3 3.82 13.81 3.82 14.04 3.28"/><polygon class="cls-1" points="17.15 3.28 17.38 3.82 17.89 3.82 17.52 4.18 17.61 4.7 17.15 4.45 16.69 4.7 16.77 4.18 16.4 3.82 16.92 3.82 17.15 3.28"/><polygon class="cls-1" points="1.64 5.94 1.87 6.48 2.38 6.48 2.01 6.84 2.1 7.35 1.64 7.11 1.18 7.35 1.27 6.84 0.9 6.48 1.41 6.48 1.64 5.94"/><polygon class="cls-1" points="4.74 5.94 4.97 6.48 5.48 6.48 5.11 6.84 5.2 7.35 4.74 7.11 4.28 7.35 4.37 6.84 4 6.48 4.51 6.48 4.74 5.94"/><polygon class="cls-1" points="7.84 5.94 8.07 6.48 8.58 6.48 8.21 6.84 8.3 7.35 7.84 7.11 7.38 7.35 7.47 6.84 7.1 6.48 7.61 6.48 7.84 5.94"/><polygon class="cls-1" points="10.94 5.94 11.17 6.48 11.69 6.48 11.31 6.84 11.4 7.35 10.94 7.11 10.48 7.35 10.57 6.84 10.2 6.48 10.71 6.48 10.94 5.94"/><polygon class="cls-1" points="14.04 5.94 14.27 6.48 14.79 6.48 14.42 6.84 14.5 7.35 14.04 7.11 13.59 7.35 13.67 6.84 13.3 6.48 13.81 6.48 14.04 5.94"/><polygon class="cls-1" points="17.15 5.94 17.38 6.48 17.89 6.48 17.52 6.84 17.61 7.35 17.15 7.11 16.69 7.35 16.77 6.84 16.4 6.48 16.92 6.48 17.15 5.94"/><polygon class="cls-1" points="1.64 8.6 1.87 9.14 2.38 9.14 2.01 9.5 2.1 10.01 1.64 9.77 1.18 10.01 1.27 9.5 0.9 9.14 1.41 9.14 1.64 8.6"/><polygon class="cls-1" points="4.74 8.6 4.97 9.14 5.48 9.14 5.11 9.5 5.2 10.01 4.74 9.77 4.28 10.01 4.37 9.5 4 9.14 4.51 9.14 4.74 8.6"/><polygon class="cls-1" points="7.84 8.6 8.07 9.14 8.58 9.14 8.21 9.5 8.3 10.01 7.84 9.77 7.38 10.01 7.47 9.5 7.1 9.14 7.61 9.14 7.84 8.6"/><polygon class="cls-1" points="10.94 8.6 11.17 9.14 11.69 9.14 11.31 9.5 11.4 10.01 10.94 9.77 10.48 10.01 10.57 9.5 10.2 9.14 10.71 9.14 10.94 8.6"/><polygon class="cls-1" points="14.04 8.6 14.27 9.14 14.79 9.14 14.42 9.5 14.5 10.01 14.04 9.77 13.59 10.01 13.67 9.5 13.3 9.14 13.81 9.14 14.04 8.6"/><polygon class="cls-1" points="17.15 8.6 17.38 9.14 17.89 9.14 17.52 9.5 17.61 10.01 17.15 9.77 16.69 10.01 16.77 9.5 16.4 9.14 16.92 9.14 17.15 8.6"/><polygon class="cls-1" points="1.64 11.26 1.87 11.8 2.38 11.8 2.01 12.16 2.1 12.67 1.64 12.43 1.18 12.67 1.27 12.16 0.9 11.8 1.41 11.8 1.64 11.26"/><polygon class="cls-1" points="4.74 11.26 4.97 11.8 5.48 11.8 5.11 12.16 5.2 12.67 4.74 12.43 4.28 12.67 4.37 12.16 4 11.8 4.51 11.8 4.74 11.26"/><polygon class="cls-1" points="7.84 11.26 8.07 11.8 8.58 11.8 8.21 12.16 8.3 12.67 7.84 12.43 7.38 12.67 7.47 12.16 7.1 11.8 7.61 11.8 7.84 11.26"/><polygon class="cls-1" points="10.94 11.26 11.17 11.8 11.69 11.8 11.31 12.16 11.4 12.67 10.94 12.43 10.48 12.67 10.57 12.16 10.2 11.8 10.71 11.8 10.94 11.26"/><polygon class="cls-1" points="14.04 11.26 14.27 11.8 14.79 11.8 14.42 12.16 14.5 12.67 14.04 12.43 13.59 12.67 13.67 12.16 13.3 11.8 13.81 11.8 14.04 11.26"/><polygon class="cls-1" points="17.15 11.26 17.38 11.8 17.89 11.8 17.52 12.16 17.61 12.67 17.15 12.43 16.69 12.67 16.77 12.16 16.4 11.8 16.92 11.8 17.15 11.26"/><rect class="cls-4" x="18.87" width="6.27" height="1.95" transform="translate(44.01 1.95) rotate(180)"/><rect class="cls-4" x="18.87" y="11.52" width="6.27" height="1.95" transform="translate(44.01 25) rotate(180)"/><rect class="cls-4" y="15.36" width="25.14" height="1.95" transform="translate(25.14 32.68) rotate(180)"/><rect class="cls-4" y="19.2" width="25.14" height="1.95" transform="translate(25.14 40.36) rotate(180)"/><rect class="cls-4" y="23.05" width="25.14" height="1.95" transform="translate(25.14 48.05) rotate(180)"/><rect class="cls-4" x="18.87" y="7.68" width="6.27" height="1.95" transform="translate(44.01 17.32) rotate(180)"/><rect class="cls-4" x="18.87" y="3.84" width="6.27" height="1.95" transform="translate(44.01 9.64) rotate(180)"/></g></svg>